<?xml version="1.0" standalone="no"?>
<!DOCTYPE svg PUBLIC "-//W3C//DTD SVG 20010904//EN"
 "http://www.w3.org/TR/2001/REC-SVG-20010904/DTD/svg10.dtd">
<svg version="1.0" xmlns="http://www.w3.org/2000/svg"
 width="2502.000000pt" height="2425.000000pt" viewBox="0 0 2502.000000 2425.000000"
 preserveAspectRatio="xMidYMid meet">

<g transform="translate(0.000000,2425.000000) scale(0.100000,-0.100000)"
fill="#000000" stroke="none">
<path d="M11970 24240 c-1173 -54 -2253 -243 -3343 -586 -1343 -423 -2656
-1098 -3774 -1941 -499 -376 -874 -703 -1333 -1162 -555 -556 -1005 -1095
-1438 -1726 -476 -693 -922 -1526 -1232 -2300 -699 -1747 -971 -3610 -799
-5490 193 -2122 963 -4150 2241 -5905 377 -519 757 -960 1242 -1445 455 -454
841 -790 1336 -1161 2682 -2011 6091 -2872 9470 -2394 2376 337 4592 1330
6415 2876 473 402 1019 947 1419 1419 1005 1186 1763 2531 2246 3985 511 1536
698 3173 549 4805 -193 2122 -963 4150 -2241 5905 -374 514 -754 956 -1233
1436 -381 381 -656 628 -1040 935 -1746 1394 -3854 2304 -6075 2623 -386 55
-710 88 -1145 116 -216 14 -1035 20 -1265 10z m8926 -4060 c214 -209 424 -429
581 -609 169 -193 313 -366 313 -377 0 -11 -52 -64 -62 -64 -5 0 -156 -126
-336 -281 l-327 -280 -35 38 c-19 22 -82 95 -140 164 -184 218 -368 417 -631
682 l-256 258 76 59 c42 32 207 171 366 308 167 144 295 247 302 243 6 -3 74
-67 149 -141z m-661 -832 c286 -288 442 -459 651 -714 105 -129 105 -129 82
-144 -12 -8 -180 -150 -373 -315 -193 -165 -370 -315 -394 -334 l-44 -34 -20
24 c-213 265 -510 590 -806 883 l-232 229 31 26 c17 14 69 58 115 96 47 39
219 184 382 323 163 138 301 252 306 252 6 0 141 -132 302 -292z m-1001 -664
c227 -211 551 -563 769 -835 42 -53 77 -99 77 -102 0 -7 -618 -537 -626 -537
-3 0 -38 -28 -77 -62 l-70 -63 -41 49 c-358 429 -607 696 -947 1012 l-76 71
159 134 c87 74 263 223 391 331 l232 197 35 -33 c19 -18 98 -90 174 -162z
m-928 -651 c273 -248 590 -586 823 -877 56 -70 101 -129 101 -131 0 -4 -462
-400 -520 -445 -25 -19 -91 -75 -148 -123 -56 -49 -106 -87 -111 -85 -5 2 -50
55 -101 118 -272 336 -557 635 -904 948 -50 45 -57 55 -45 66 46 42 371 317
403 341 22 17 112 92 200 167 89 76 163 138 167 138 3 0 63 -53 135 -117z
m-821 -755 c281 -251 628 -624 848 -915 l47 -61 -203 -174 c-111 -95 -218
-185 -238 -200 -19 -14 -122 -101 -228 -192 l-193 -165 -71 91 c-258 334 -551
643 -889 937 -60 51 -108 95 -108 96 0 4 536 463 578 495 18 14 89 73 159 132
124 105 128 107 148 90 11 -10 79 -70 150 -134z m-1048 -695 c258 -207 551
-498 776 -770 104 -125 227 -288 227 -300 0 -9 -245 -223 -256 -223 -3 0 -137
-112 -297 -250 -161 -137 -295 -250 -298 -250 -3 0 -43 50 -89 111 -215 288
-520 610 -797 841 -83 69 -163 134 -177 143 l-25 17 46 35 c25 19 203 170 394
334 192 165 352 299 357 299 4 0 21 14 37 30 16 17 32 30 36 30 5 0 34 -21 66
-47z m-3835 -4044 c223 -48 377 -266 339 -480 -31 -180 -174 -319 -361 -351
-285 -49 -548 202 -502 480 40 242 280 402 524 351z m-4062 -3214 c175 -230
359 -436 559 -626 72 -68 131 -126 131 -129 0 -7 -353 -310 -375 -323 -8 -4
-116 -95 -241 -202 -125 -107 -232 -195 -237 -195 -18 0 -440 431 -549 560
-57 69 -145 179 -195 245 -88 117 -253 357 -253 368 0 6 520 453 590 507 25
19 96 78 159 132 l113 97 107 -162 c59 -89 145 -211 191 -272z m-1136 -503
c210 -301 437 -572 712 -849 l190 -193 -85 -72 c-47 -40 -101 -85 -121 -99
-19 -14 -172 -144 -340 -287 -168 -144 -309 -262 -314 -262 -27 0 -430 422
-615 644 -133 160 -399 522 -390 530 2 2 180 152 394 334 215 182 406 345 425
361 19 17 38 31 42 31 3 0 49 -62 102 -138z m-947 -780 c211 -291 471 -597
746 -879 150 -153 180 -193 146 -193 -5 0 -177 -144 -382 -320 l-372 -319
-153 152 c-301 298 -593 642 -831 979 l-33 47 37 32 c20 18 64 54 98 80 34 26
193 160 352 298 160 137 292 250 295 250 3 1 47 -56 97 -127z m-674 -957 c192
-238 360 -427 579 -650 l157 -160 -322 -276 c-177 -152 -353 -300 -390 -328
l-67 -52 -36 27 c-49 38 -351 358 -509 541 -127 146 -353 430 -434 543 l-39
56 114 94 c63 52 239 201 391 331 l277 236 99 -131 c55 -72 136 -176 180 -231z
m-1028 -498 c205 -268 409 -507 709 -825 105 -112 191 -207 191 -211 0 -8
-571 -501 -580 -501 -3 0 -58 -45 -122 -100 l-117 -101 -64 63 c-265 260 -634
682 -880 1008 -85 112 -101 78 128 270 88 74 265 224 393 332 128 109 234 197
237 197 3 0 50 -59 105 -132z m-591 -1147 c151 -175 344 -387 475 -523 122
-125 124 -128 105 -146 -39 -36 -370 -318 -414 -351 -40 -31 -219 -182 -278
-234 l-23 -20 -95 94 c-261 258 -625 677 -878 1008 -47 62 -48 64 -30 81 47
44 375 320 424 358 30 23 109 88 175 145 l119 104 165 -206 c90 -113 205 -252
255 -310z"/>
</g>
</svg>
